# xmcd
#
# Track frame offsets: 
#        150
#        35884
#        88519
#        138291
#        185402
#        216943
#
# Disc length: 3519 seconds
#
# Revision: 3
# Processed by: cddbd v1.5.1PL2 Copyright (c) Steve Scherf et al.
# Submitted via: ExactAudioCopy v0.95b4
#
DISCID=530dbd06
DTITLE=Jimmy Smith - Groovin' At Small's Paradise [CD 1)
DYEAR=1957
DGENRE=Jazz
TTITLE0=Imagination
TTITLE1=Walkin'
TTITLE2=My Funny Valentine
TTITLE3=It's Only A Paper Moon
TTITLE4=I Can't Give You Anything But Love
TTITLE5=Laura
EXTD=YEAR: 1957
EXTT0=
EXTT1=
EXTT2=
EXTT3=
EXTT4=
EXTT5=
PLAYORDER=
